inDegrees=no
num_controls=7
num_derivatives=13
num_iterations=55
num_multipliers=7
num_parameters=0
num_slacks=7
num_states=26
objective=0.459642
objective_accelerations=0.019581
objective_balance=0.001150
objective_effort=0.010714
objective_height=0.423578
objective_ligament=0.004619
solver_duration=861.294819
status=Solve_Succeeded
success=true
DataType=double
version=3
OpenSimVersion=4.5
endheader
time	/jointset/ground_pelvis/pelvis_tilt/value	/jointset/ground_pelvis/pelvis_tx/value	/jointset/ground_pelvis/pelvis_ty/value	/jointset/hip_l/hip_flexion_l/value	/jointset/hip_l/hip_adduction_l/value	/jointset/hip_l/hip_rotation_l/value	/jointset/back/lumbar_extension/value	/jointset/patellofemoral_l/patellar_flexion_l/value	/jointset/knee_l/knee_flexion_l/value	/jointset/knee_l/knee_adduction_l/value	/jointset/knee_l/knee_rotation_l/value	/jointset/ankle_l/ankle_angle_l/value	/jointset/subtalar_l/subtalar_angle_l/value	/jointset/ground_pelvis/pelvis_tilt/speed	/jointset/ground_pelvis/pelvis_tx/speed	/jointset/ground_pelvis/pelvis_ty/speed	/jointset/hip_l/hip_flexion_l/speed	/jointset/hip_l/hip_adduction_l/speed	/jointset/hip_l/hip_rotation_l/speed	/jointset/back/lumbar_extension/speed	/jointset/patellofemoral_l/patellar_flexion_l/speed	/jointset/knee_l/knee_flexion_l/speed	/jointset/knee_l/knee_adduction_l/speed	/jointset/knee_l/knee_rotation_l/speed	/jointset/ankle_l/ankle_angle_l/speed	/jointset/subtalar_l/subtalar_angle_l/speed	/forceset/tau_hip_flexion_l	/forceset/tau_hip_adduction_l	/forceset/tau_hip_rotation_l	/forceset/tau_knee_flexion_l	/forceset/tau_ankle_angle_l	/forceset/tau_subtalar_angle_l	/forceset/tau_lumbar_extension	lambda_cid13_p0	lambda_cid13_p1	lambda_cid13_p2	lambda_cid13_p3	lambda_cid13_p4	lambda_cid13_p5	lambda_cid14_p0	/jointset/ground_pelvis/pelvis_tilt/accel	/jointset/ground_pelvis/pelvis_tx/accel	/jointset/ground_pelvis/pelvis_ty/accel	/jointset/hip_l/hip_flexion_l/accel	/jointset/hip_l/hip_adduction_l/accel	/jointset/hip_l/hip_rotation_l/accel	/jointset/back/lumbar_extension/accel	/jointset/patellofemoral_l/patellar_flexion_l/accel	/jointset/knee_l/knee_flexion_l/accel	/jointset/knee_l/knee_adduction_l/accel	/jointset/knee_l/knee_rotation_l/accel	/jointset/ankle_l/ankle_angle_l/accel	/jointset/subtalar_l/subtalar_angle_l/accel	gamma_cid13_p0	gamma_cid13_p1	gamma_cid13_p2	gamma_cid13_p3	gamma_cid13_p4	gamma_cid13_p5	gamma_cid14_p0
0.5	0.01219275742122861	0.1174572995567455	0.8623197520104191	0.2955294446264821	-0.4155139281867491	-0.3730748996140709	-0.2250935419421164	0.4902886675720721	0.4902886675718516	-0.1702526691542523	-0.1595510078308674	0.2046420206089621	0.0533011034990229	0.1598195915068595	0.14499228248773	-0.1418681029871707	0.2486853761839144	-0.2388520998918129	0.369276638734388	-0.1643383690238669	1.136185543962028	1.136185543962028	-0.0005507139297477744	-0.05594973931386479	0.7628418012039693	0.1808648585829137	0.005796294521471138	0.05166830070960343	-0.01504993320647362	-0.2116955624960642	-0.003008890011874687	-0.0172272227405003	0.04813156161669126	-36.18040193668733	9.987827089473047	2.445253996579492	3.892636357679511	-537.2896681998767	-43.5524647331494	-38.33027313647169	-0.01544192888190805	0.01983845942357791	-0.184088362740859	-0.3848899080617826	0.2035230767639159	-0.2440301203191617	0.4127802526309736	-0.7357549017118229	-0.7357549017118573	-0.07867323500971747	-0.02311942790920317	-0.2927442792921656	0.2019458085967972	6.318159526817241e-08	-1.194069739315999e-07	-2.170846226931023e-07	-4.155778665464844e-08	7.538319059840566e-08	1.324748881770859e-07	1.785262949307436e-08
0.51	0.01378961416727671	0.1189079572205877	0.860892089005785	0.2979973957637957	-0.4178918703423297	-0.3693957836506177	-0.2267159356666748	0.501612690133578	0.5016126901334403	-0.170261139552299	-0.1601123938916105	0.2122549352642661	0.05511991267238889	0.159534634796355	0.1451148268749348	-0.1436353090042606	0.2448730250674825	-0.2367016388297742	0.3664639342292168	-0.1601474321479769	1.128475930639809	1.128475930639804	-0.001096692851790824	-0.0563370159832806	0.75964159428046	0.1828866276726925	0.005706248707800808	0.05363060961953158	-0.0149523022198356	-0.2134413231699854	-0.007331620730390336	-0.01700051098911184	0.04841812024763012	-37.59674319731499	10.22596542051751	2.306076289306469	4.549209671943708	-538.1467132686573	-43.34391659068878	-38.02311736845719	-0.03757870482463384	0.004790350648697645	-0.1686421840140279	-0.3841677097196496	0.2260635878092501	-0.3122638204292078	0.4211919624091936	-0.8100240912791588	-0.8100240912803	-0.0355993615406697	-0.04800096527936071	-0.3485870884118062	0.2007854286994872	7.121003796467685e-08	-1.027586107611402e-07	-2.510057239249568e-07	-4.085980823638728e-08	8.664730474656135e-08	1.695452695171805e-07	2.226691236513052e-08
0.52	0.01538311011383681	0.1203591059127626	0.8594476328484164	0.3004262713906269	-0.4202472566939319	-0.3657472693731738	-0.2282966317110143	0.5128553246531194	0.5128553246529067	-0.1702736775677146	-0.1606779465547141	0.2198328622124323	0.05695863813055824	0.1591474315777396	0.1450904881542822	-0.1452267335343458	0.2408702740995195	-0.2343409390923124	0.363156301531479	-0.155998832978799	1.119907935565513	1.119907935565503	-0.0013642374034189	-0.05678305980562244	0.75584425977573	0.1848481155437236	0.005616202892292897	0.05559291852944453	-0.01485467123400826	-0.2151870838443383	-0.01165435144903544	-0.01677379923781544	0.04870467887711356	-39.01971457890522	10.46708638751434	2.164342436135474	5.213829558160195	-539.0941719499469	-43.14527903585465	-37.70403894806805	-0.03589123050543491	-0.009538162146872758	-0.1489320653399987	-0.4229698783682047	0.245570811848241	-0.3430157588327774	0.4043127112872618	-0.9074312521271822	-0.9074312521272119	-0.02298636092732112	-0.03487285849460737	-0.4121697955351898	0.1898895648476128	7.988456828276526e-08	-6.849760450077616e-08	-2.903740110652121e-07	-3.684111917796563e-08	9.808639252909417e-08	2.211727400088619e-07	2.797596041236941e-08
0.53	0.01697219033477559	0.1218092531117049	0.8579881446102989	0.3028142059215802	-0.4225781469148326	-0.3621336125757513	-0.2298361275444304	0.5240079617556259	0.5240079617556826	-0.1702880591788086	-0.1612477243704009	0.2273697676419955	0.05881640991093161	0.1586593193587692	0.1449123567966339	-0.1466395490779743	0.2366685069133994	-0.2318217384600199	0.3595666775188962	-0.1519271084354708	1.110462757124389	1.11046275712438	-0.001541652628483983	-0.05712975984490946	0.7514254240977519	0.1866600154024926	0.005630177847645399	0.0574840580628281	-0.01477222422109874	-0.216981883585453	-0.01585661655521566	-0.01658059304300127	0.04889750211064855	-40.40392528214323	10.72071820932689	2.015192766533576	5.883071180264025	-539.981172786805	-42.93270270280968	-37.37363174507485	-0.05665327288251923	-0.02594679188810884	-0.132730728459859	-0.425985139503695	0.2574591590169146	-0.3681607170596349	0.4045861131219997	-0.986576507426017	-0.9865765074261671	-0.01959064049716636	-0.02820832924031981	-0.4734456959461077	0.1699499576178749	8.276522247930622e-08	-3.327960848429126e-08	-3.058116602410692e-07	-3.118318043606601e-08	1.035511202108825e-07	2.531174100790352e-07	3.105954757544374e-08
0.54	0.01855611302260446	0.1232568197632126	0.8565154733308296	0.3051586817804223	-0.4248833722354134	-0.3585560970173592	-0.2313357093749793	0.535061444000285	0.5350614440004352	-0.1703051092495828	-0.161819697136912	0.2348591436663789	0.06069092264213676	0.1581159249277168	0.1445743786673543	-0.1478633418050152	0.2321785396964035	-0.2292079590238417	0.3559280537227297	-0.1480160324018295	1.100076963990445	1.100076963990438	-0.001897929341612427	-0.05722204998803991	0.7463383787391306	0.1881963057103207	0.005644152800928537	0.05937519759621042	-0.01468977720896408	-0.2187766833270511	-0.02005888166152436	-0.01638738684826156	0.04909032534251267	-41.79644652079855	10.97766343280251	1.863392094828177	6.565087454848316	-540.9812941143115	-42.73149376572201	-37.03118453059748	-0.04694767292293088	-0.04150751647225212	-0.1111275020225461	-0.4806098845435781	0.2644865726250928	-0.3528157155498109	0.3721830093487345	-1.095554190691022	-1.095554190691048	-0.05875865854054485	0.01600912073645551	-0.5458117316629604	0.1347676546596599	7.923563075413504e-08	2.997184709178516e-09	-2.947728589031238e-07	-2.371160374648862e-08	1.024059175684427e-07	2.632853647892416e-07	3.123836950497426e-08
0.55	0.0201342994528544	0.1247002416572524	0.8550315127131431	0.3074568423123668	-0.4271620686945513	-0.3550144582799069	-0.2327968822181423	0.5460063904841969	0.5460063904842752	-0.1703270616502278	-0.1623907286064262	0.2422943773447274	0.06257932262479148	0.1575139033984574	0.1440867801286548	-0.1488962524762686	0.2274010144600235	-0.2265236220314897	0.3524511939213457	-0.144240289433252	1.088756349867247	1.088756349867252	-0.002565425324585916	-0.05689862744360465	0.7406022963983667	0.189426829786605	0.005684599915754063	0.06115840664787438	-0.01461800486278995	-0.220579794695496	-0.02408843026326478	-0.01617571026933665	0.04927333010351205	-43.12752190106626	11.21662318529611	1.713551116259565	7.172207035923249	-541.900739052123	-42.5568170665781	-36.6767651263155	-0.06793994522964306	-0.05587294966433154	-0.09447310523823096	-0.4841969759551076	0.27161265306053	-0.3373630792014076	0.3770069577027528	-1.173718728661979	-1.173718728660253	-0.08169892749917634	0.05330373967370095	-0.6034090381079384	0.1086950965570514	7.675342441378769e-08	2.193683492338886e-08	-2.850582445711222e-07	-1.94215101429255e-08	1.012263836570096e-07	2.655920524642655e-07	3.10282576952591e-08
0.5600000000000001	0.02170624355747375	0.1261380901804911	0.8535382029376344	0.3097056529652493	-0.4294136807056822	-0.3515060365338059	-0.2342209502282338	0.5568334500857374	0.5568334500856282	-0.1703578797823371	-0.1629559668669832	0.2496690696891103	0.06447832791069605	0.1568674597766727	0.1434597045071243	-0.1497331733698067	0.2223085639128158	-0.2237910694183055	0.3492846554491559	-0.1405950657813836	1.076499587522961	1.07649958752298	-0.00367107568053572	-0.05606340816415044	0.7342301119446414	0.1903173663606552	0.00572504702804471	0.06294161569944128	-0.01454623251597076	-0.2223829060647493	-0.02811797886521261	-0.01596403369069001	0.04945633486251175	-44.46760703631241	11.45883579818838	1.561277408840615	7.793832040991369	-542.9430723281685	-42.39543813214905	-36.31187599838205	-0.05583209142886647	-0.06940293303772058	-0.0719295464795336	-0.5435949467092753	0.2741296967912516	-0.2907514497112751	0.3460791460058831	-1.282783834908537	-1.282783834908322	-0.1463895331363115	0.1183684677399382	-0.6730321542545119	0.06677015421294528	7.552808053522893e-08	2.007191356248859e-08	-2.769326546462531e-07	-1.894919624257938e-08	1.000056522227844e-07	2.584652196970708e-07	3.035142539844916e-08
